<svg id="Слой_1" data-name="Слой 1" xmlns="http://www.w3.org/2000/svg" viewBox="0 0 416 416">
   <defs>
      <style>.cls-1{fill:#78aefe;}.cls-2{fill:#fff;}</style>
   </defs>
   <title>loader</title>
   <circle class="cls-1" cx="208" cy="208" r="208"/>
   <circle class="cls-2" cx="208" cy="208" r="1"/>
   <path class="cls-2" d="M819.09,368.72c0-2.71,1.35-4.51,4.51-4.51a9.09,9.09,0,0,1,6.95,4.06l10.64-7.22c-5-6.76-9.92-9.92-17.59-9.92-10,0-18,7.22-18,17.59,0,17.59,26.62,17.14,26.62,28,0,4.51-3.16,7.22-7.67,7.22-3.61,0-7.67-1.81-9.92-7.85L803.33,403c3.16,9,11.73,14,21.2,14,12.18,0,21.2-9.47,21.2-20.3C845.71,375.93,819.09,375.93,819.09,368.72Z" transform="translate(-466 -176)"/>
   <polygon class="cls-2" points="106.11 175.64 89.32 175.64 69.57 203.9 69.57 175.64 54.8 175.64 54.8 240.72 69.57 240.72 69.57 210.6 90.24 240.72 107.04 240.72 84.33 207.34 106.11 175.64"/>
   <polygon class="cls-2" points="131.88 214.87 154.95 214.87 154.95 200.56 131.88 200.56 131.88 189.94 157.26 189.94 157.26 175.64 116.65 175.64 116.65 240.72 157.72 240.72 157.72 226.41 131.88 226.41 131.88 214.87"/>
   <polygon class="cls-2" points="182.19 214.87 205.26 214.87 205.26 200.56 182.19 200.56 182.19 189.94 207.57 189.94 207.57 175.64 167.42 175.64 167.42 240.72 208.03 240.72 208.03 226.41 182.19 226.41 182.19 214.87"/>
   <polygon class="cls-2" points="217.26 189.94 233.88 189.94 233.88 240.72 248.65 240.72 248.65 189.94 265.73 189.94 265.73 175.64 217.26 175.64 217.26 189.94"/>
   <path class="cls-2" d="M766.88,350.25a32.85,32.85,0,0,0-25.79,53L734.33,417l17.15-5.06a33.41,33.41,0,0,0,30.87,0L798.89,417l-6.14-13.81a32.85,32.85,0,0,0-25.88-52.92Zm0,51.42c-10.25,0-18.34-7.46-18.34-18.7s8.09-18.7,18.34-18.7,18.34,7.46,18.34,18.7S777.12,401.67,766.88,401.67Z" transform="translate(-466 -176)"/>
</svg>