<svg id="Слой_1" data-name="Слой 1" xmlns="http://www.w3.org/2000/svg" viewBox="0 0 529 109.58"><defs><style>.cls-1{fill:#fff;}</style></defs><title>logo_keetos</title><path class="cls-1" d="M485.66,30.48c0-4.41,2.2-7.34,7.35-7.34,3.67,0,8.08,2.2,11.31,6.61L521.65,18C513.58,7,505.49,1.84,493,1.84c-16.31,0-29.38,11.75-29.38,28.65C463.63,59.13,507,58.4,507,76c0,7.34-5.14,11.75-12.49,11.75-5.88,0-12.49-2.94-16.16-12.78L460,86.31c5.14,14.69,19.1,22.77,34.52,22.77C514.31,109.08,529,93.65,529,76,529,42.24,485.66,42.24,485.66,30.48Z"/><polygon class="cls-1" points="84.11 2.53 56.55 2.53 24.15 48.56 24.15 2.53 -0.07 2.53 -0.07 108.51 24.15 108.51 24.15 59.46 58.07 108.51 85.62 108.51 48.38 54.16 84.11 2.53"/><polygon class="cls-1" points="125.23 66.42 163.08 66.42 163.08 43.41 125.23 43.41 125.23 25.85 166.87 25.85 166.87 2.53 101 2.53 101 108.51 167.62 108.51 167.62 85.2 125.23 85.2 125.23 66.42"/><polygon class="cls-1" points="207.57 66.42 245.42 66.42 245.42 43.41 207.57 43.41 207.57 25.85 249.21 25.85 249.21 2.53 183.34 2.53 183.34 108.51 249.96 108.51 249.96 85.2 207.57 85.2 207.57 66.42"/><polygon class="cls-1" points="264.43 25.85 291.68 25.85 291.68 108.51 315.9 108.51 315.9 25.85 343.15 25.85 343.15 2.53 264.43 2.53 264.43 25.85"/><path class="cls-1" d="M400.64.41a52.83,52.83,0,0,0-53.28,53.28,53.17,53.17,0,0,0,11.25,33l-11,22.35,27.93-8.24a54.41,54.41,0,0,0,50.27,0l26.93,8.27-10-22.49a53.18,53.18,0,0,0,11.14-32.9A52.83,52.83,0,0,0,400.64.41Zm0,83.73C384,84.14,370.78,72,370.78,53.69S384,23.24,400.64,23.24,430.5,35.39,430.5,53.69,417.32,84.14,400.64,84.14Z"/></svg>